<svg xmlns="http://www.w3.org/2000/svg" viewBox="0 0 32 32">
  <g data-name="note android app aplication phone">
    <path 
      d="M30.56 8.47a8 8 0 0 0-7-7 64.29 64.29 0 0 0-15.06 0 8 8 0 0 0-7 7 64.29 64.29 0 0 0 0 15.06 8 8 0 0 0 7 7 64.29 64.29 0 0 0 15.06 0 8 8 0 0 0 7-7 64.29 64.29 0 0 0 0-15.06zM8.7 3.42a63.65 63.65 0 0 1 14.6 0A6 6 0 0 1 27.56 6H4.44A6 6 0 0 1 8.7 3.42zM28.58 23.3a6 6 0 0 1-5.28 5.28 63.65 63.65 0 0 1-14.6 0 6 6 0 0 1-5.28-5.28 63.65 63.65 0 0 1 0-14.6 5.44 5.44 0 0 1 .15-.7h24.86a5.44 5.44 0 0 1 .15.7 63.65 63.65 0 0 1 0 14.6z" 
      fill="none" 
      stroke="#00F5FF" 
      stroke-width="0.6"
      stroke-linecap="round"
      stroke-linejoin="round"
    />
    <path 
      d="M25 11H11a1 1 0 0 0 0 2h14a1 1 0 0 0 0-2zM25 17H7a1 1 0 0 0 0 2h18a1 1 0 0 0 0-2zM21 23H7a1 1 0 0 0 0 2h14a1 1 0 0 0 0-2z" 
      fill="none" 
      stroke="#00F5FF" 
      stroke-width="0.6"
      stroke-linecap="round"
      stroke-linejoin="round"
    />
  </g>
</svg>
